<svg viewBox="-163 0 512 512" height="100%" width="100%" xmlns="http://www.w3.org/2000/svg"><path d="m116.765625 0h-47.53125c-2.285156 0-4.132813 1.84375-4.132813 4.121094v53.570312c0 2.273438 1.851563 4.121094 4.132813 4.121094h47.53125c2.285156 0 4.132813-1.847656 4.132813-4.121094v-53.570312c0-2.277344-1.847657-4.121094-4.132813-4.121094zm0 0" fill="#8d6e63"/><path d="m116.765625 0h-31c2.285156 0 4.132813 1.84375 4.132813 4.121094v53.570312c0 2.273438-1.847657 4.121094-4.132813 4.121094h31c2.285156 0 4.132813-1.847656 4.132813-4.121094v-53.570312c0-2.277344-1.847657-4.121094-4.132813-4.121094zm0 0" fill="#795548"/><path d="m186 312.019531v169.074219c0 17.070312-13.878906 30.90625-31 30.90625h-124c-17.121094 0-31-13.835938-31-30.90625v-169.074219c0-29.820312 10.515625-58.691406 29.707031-81.5625 19.191407-22.871093 29.707031-51.742187 29.707031-81.5625v-109.59375c0-2.273437 1.851563-4.121093 4.136719-4.121093h58.898438c2.28125 0 4.132812 1.847656 4.132812 4.121093v109.59375c0 29.820313 10.515625 58.691407 29.707031 81.5625 19.195313 22.871094 29.710938 51.742188 29.710938 81.5625zm0 0" fill="#66bb6a"/><path d="m156.292969 230.457031c-19.191407-22.871093-29.707031-51.742187-29.707031-81.5625v-109.59375c0-2.277343-1.851563-4.121093-4.136719-4.121093h-31c2.285156 0 4.136719 1.84375 4.136719 4.121093v109.59375c0 29.820313 10.515624 58.691407 29.707031 81.5625 19.191406 22.871094 29.707031 51.742188 29.707031 81.5625v169.074219c0 17.070312-13.878906 30.90625-31 30.90625h31c17.121094 0 31-13.835938 31-30.90625v-169.074219c0-29.820312-10.515625-58.691406-29.707031-81.5625zm0 0" fill="#4caf50"/><path d="m126.582031 143.195312h-67.167969v-103.886718c0-2.28125 1.851563-4.128906 4.128907-4.128906h58.914062c2.277344 0 4.125 1.847656 4.125 4.128906zm0 0" fill="#607d8b"/><path d="m122.574219 35.179688h-30.996094c2.214844 0 4.011719 1.847656 4.011719 4.121093v103.894531h30.992187v-103.894531c0-2.273437-1.792969-4.121093-4.007812-4.121093zm0 0" fill="#546e7a"/><path d="m0 321.933594h186v41.207031h-186zm0 0" fill="#4caf50"/><path d="m155 321.933594h31v41.207031h-31zm0 0" fill="#43a047"/><path d="m0 363.140625h186v41.207031h-186zm0 0" fill="#fdd835"/><path d="m155 363.140625h31v41.207031h-31zm0 0" fill="#fbc02d"/><path d="m0 404.347656h186v41.207032h-186zm0 0" fill="#f44336"/><path d="m155 404.347656h31v41.207032h-31zm0 0" fill="#e53935"/></svg>
