<svg height="511pt" viewBox="0 -14 511.99915 511" xmlns="http://www.w3.org/2000/svg"><path d="m191.804688 484.039062c-5.964844 0-11.714844-3.261718-14.621094-8.933593-16.292969-31.820313-4.09375-82.648438 1.117187-104.351563.527344-2.195312.980469-4.089844 1.222657-5.230468 1.867187-8.867188 10.574218-14.542969 19.441406-12.675782 8.867187 1.871094 14.542968 10.578125 12.671875 19.445313-.335938 1.589843-.816407 3.589843-1.421875 6.121093-3.605469 15.019532-14.574219 60.722657-3.816406 81.734376 4.128906 8.066406.9375 17.953124-7.128907 22.085937-2.394531 1.222656-4.949219 1.804687-7.464843 1.804687zm0 0" fill="#efd176"/><path d="m355.304688 433.5625c-1.015626 0-2.042969-.09375-3.074219-.289062-8.90625-1.6875-14.753907-10.269532-13.070313-19.175782 2.324219-12.273437-1.253906-16.59375-2.429687-18.015625-8.917969-10.765625-36.160157-10.765625-49.253907-10.765625-9.0625 0-16.410156-7.347656-16.410156-16.410156s7.347656-16.410156 16.410156-16.410156c19.492188 0 55.769532 0 74.53125 22.652344 9.683594 11.691406 12.847657 26.851562 9.402344 45.054687-1.492187 7.875-8.378906 13.359375-16.105468 13.359375zm0 0" fill="#efd176"/><path d="m360.839844 284.003906c-18.109375 0-36.917969-4.761718-53.6875-13.96875-7.945313-4.359375-10.851563-14.335937-6.492188-22.28125 4.359375-7.945312 14.339844-10.851562 22.28125-6.488281 6.78125 3.71875 30.875 15.238281 56.234375 7.25 16.585938-5.230469 29.980469-17.984375 39.808594-37.917969 4.007813-8.125 13.847656-11.464844 21.976563-7.457031 8.128906 4.007813 11.464843 13.847656 7.457031 21.976563-13.746094 27.871093-34.277344 46.789062-59.375 54.699218-8.914063 2.808594-18.457031 4.1875-28.203125 4.1875zm0 0" fill="#efd176"/><path d="m66.246094 342.984375c-21.394532 0-41.960938-9.3125-61.183594-27.714844-6.546875-6.269531-6.773438-16.65625-.507812-23.203125 6.269531-6.546875 16.65625-6.773437 23.203124-.503906 13.664063 13.078125 26.859376 19.140625 40.296876 18.5625 16.820312-.738281 34.863281-11.964844 53.632812-33.371094 5.976562-6.816406 16.34375-7.5 23.15625-1.523437 6.816406 5.976562 7.496094 16.34375 1.523438 23.160156-24.902344 28.398437-50.765626 43.378906-76.878907 44.523437-1.085937.042969-2.164062.070313-3.242187.070313zm0 0" fill="#efd176"/><path d="m143.816406 73.625c26.746094 18.730469 36.882813 53.441406 40.476563 71.539062 1.304687 6.578126-3.140625 12.925782-9.765625 13.949219-18.238282 2.816407-54.324219 5.164063-81.070313-13.566406-26.746093-18.730469-36.886719-53.441406-40.476562-71.539063-1.304688-6.578124 3.140625-12.925781 9.765625-13.949218 18.238281-2.816406 54.324218-5.160156 81.070312 13.566406zm0 0" fill="#8ee2cf"/><path d="m134.667969 128.320312c-1.484375 0-2.984375-.441406-4.292969-1.359374l-32.078125-22.460938c-3.394531-2.375-4.21875-7.054688-1.84375-10.445312 2.378906-3.394532 7.054687-4.21875 10.445313-1.84375l32.078124 22.464843c3.394532 2.375 4.21875 7.050781 1.84375 10.445313-1.460937 2.082031-3.789062 3.199218-6.152343 3.199218zm0 0" fill="#6fce91"/><path d="m232.675781 57.957031c-18.730469 26.75-16.382812 62.835938-13.570312 81.070313 1.023437 6.625 7.371093 11.070312 13.949219 9.765625 18.097656-3.589844 52.8125-13.726563 71.539062-40.476563 18.726562-26.746094 16.382812-62.832031 13.570312-81.066406-1.023437-6.628906-7.375-11.074219-13.949218-9.769531-18.101563 3.59375-52.8125 13.730469-71.539063 40.476562zm0 0" fill="#8ee2cf"/><path d="m257.398438 106.675781c-1.488282 0-2.988282-.4375-4.296876-1.355469-3.390624-2.375-4.21875-7.054687-1.839843-10.445312l22.460937-32.078125c2.375-3.394531 7.050782-4.21875 10.445313-1.839844 3.390625 2.375 4.214843 7.050781 1.839843 10.445313l-22.460937 32.074218c-1.460937 2.085938-3.785156 3.199219-6.148437 3.199219zm0 0" fill="#6fce91"/><path d="m233.511719 69.695312c5.667969 32.15625-11.707031 63.871094-21.964844 79.207032-3.730469 5.574218-11.363281 6.917968-16.769531 2.957031-14.886719-10.902344-42.0625-34.761719-47.730469-66.917969-5.671875-32.15625 11.707031-63.867187 21.964844-79.207031 3.726562-5.574219 11.359375-6.917969 16.769531-2.957031 14.882812 10.902344 42.058594 34.761718 47.730469 66.917968zm0 0" fill="#8ee2cf"/><path d="m193.667969 104.101562c-3.570313 0-6.734375-2.558593-7.375-6.195312l-6.800781-38.566406c-.71875-4.082032 2.003906-7.96875 6.082031-8.6875 4.082031-.722656 7.96875 2.003906 8.6875 6.082031l6.800781 38.566406c.71875 4.078125-2.003906 7.96875-6.082031 8.6875-.441407.078125-.878907.113281-1.3125.113281zm0 0" fill="#6fce91"/><path d="m198.527344 124.101562c66.703125-11.761718 123.648437 32.363282 144.066406 110.792969 21.242188 81.582031.996094 148.796875-95.300781 165.777344-96.300781 16.980469-138.3125-39.257813-146.253907-123.183594-7.636718-80.683593 30.78125-141.625 97.488282-153.386719zm0 0" fill="#f7ef87"/><g fill="#efd176"><path d="m159.875 138.066406c-42.34375 24.707032-64.84375 75.949219-58.835938 139.417969 7.921876 83.695313 49.730469 139.847656 145.460938 123.320313-128.652344-50.570313-120.113281-184.246094-86.625-262.738282zm0 0"/><path d="m204.660156 234.992188c-1.488281 0-2.988281-.441407-4.296875-1.359376-3.390625-2.375-4.21875-7.050781-1.839843-10.441406l9.65625-13.796875c2.378906-3.394531 7.054687-4.21875 10.445312-1.84375l13.796875 9.660157c3.390625 2.375 4.21875 7.054687 1.839844 10.445312-2.375 3.394531-7.050781 4.21875-10.445313 1.84375l-7.648437-5.359375-5.359375 7.652344c-1.457032 2.082031-3.785156 3.199219-6.148438 3.199219zm0 0"/><path d="m271.707031 223.167969c-1.488281 0-2.988281-.441407-4.296875-1.355469-3.394531-2.378906-4.21875-7.054688-1.84375-10.445312l9.660156-13.796876c2.375-3.394531 7.054688-4.21875 10.445313-1.839843l13.796875 9.65625c3.390625 2.378906 4.214844 7.054687 1.839844 10.445312-2.375 3.394531-7.050782 4.21875-10.445313 1.84375l-7.648437-5.355469-5.359375 7.648438c-1.460938 2.085938-3.785157 3.199219-6.148438 3.199219zm0 0"/><path d="m137.613281 246.8125c-1.488281 0-2.988281-.4375-4.296875-1.355469-3.390625-2.375-4.21875-7.054687-1.839844-10.445312l9.660157-13.796875c2.375-3.390625 7.050781-4.214844 10.445312-1.839844l13.792969 9.660156c3.394531 2.375 4.21875 7.050782 1.84375 10.441406-2.378906 3.394532-7.054688 4.21875-10.445312 1.84375l-7.652344-5.355468-5.359375 7.648437c-1.457031 2.085938-3.785157 3.199219-6.148438 3.199219zm0 0"/><path d="m261.246094 359.886719c-1.484375 0-2.984375-.441407-4.296875-1.355469-3.390625-2.378906-4.214844-7.054688-1.839844-10.445312l9.660156-13.796876c2.375-3.394531 7.050781-4.21875 10.445313-1.839843l13.792968 9.65625c3.394532 2.378906 4.21875 7.054687 1.84375 10.445312-2.375 3.394531-7.054687 4.21875-10.445312 1.84375l-7.652344-5.359375-5.355468 7.652344c-1.460938 2.085938-3.789063 3.199219-6.152344 3.199219zm0 0"/><path d="m194.199219 371.710938c-1.484375 0-2.984375-.441407-4.292969-1.359376-3.394531-2.375-4.21875-7.050781-1.84375-10.445312l9.660156-13.792969c2.375-3.394531 7.050782-4.21875 10.445313-1.84375l13.792969 9.660157c3.394531 2.375 4.21875 7.054687 1.84375 10.445312s-7.054688 4.214844-10.445313 1.839844l-7.652344-5.355469-5.355469 7.648437c-1.460937 2.085938-3.789062 3.203126-6.152343 3.203126zm0 0"/></g><path d="m180.769531 310.3125c-2.222656-12.613281-16.863281-20.574219-32.703125-17.78125-15.839844 2.789062-26.878906 15.28125-24.652344 27.894531 2.222657 12.613281 16.863282 20.574219 32.703126 17.78125 15.839843-2.792969 26.878906-15.28125 24.652343-27.894531zm0 0" fill="#eda1ab"/><path d="m278.898438 292.996094c2.222656 12.613281 16.867187 20.574218 32.703124 17.785156 15.839844-2.792969 26.878907-15.28125 24.65625-27.894531-2.226562-12.613281-16.867187-20.574219-32.707031-17.785157-15.839843 2.792969-26.875 15.28125-24.652343 27.894532zm0 0" fill="#eda1ab"/><path d="m164.796875 297.132812c-3.570313 0-6.734375-2.558593-7.375-6.195312l-3.960937-22.453125c-.71875-4.082031 2.003906-7.972656 6.082031-8.691406 4.082031-.71875 7.972656 2.003906 8.6875 6.082031l3.960937 22.457031c.71875 4.078125-2.003906 7.96875-6.082031 8.6875-.441406.078125-.878906.113281-1.3125.113281zm0 0" fill="#4e5660"/><path d="m286.820312 275.617188c-3.570312 0-6.734374-2.558594-7.378906-6.195313l-.890625-5.066406c-.71875-4.078125 2.003907-7.96875 6.082031-8.6875 4.082032-.722657 7.96875 2.003906 8.6875 6.082031l.894532 5.066406c.71875 4.078125-2.003906 7.96875-6.082032 8.6875-.441406.078125-.878906.113282-1.3125.113282zm0 0" fill="#4e5660"/><path d="m152.015625 169.144531-26.140625 4.609375c-10.984375 1.9375-17.386719 13.507813-13.1875 23.839844l2.636719 6.496094c4.433593 10.921875 15.894531 17.261718 27.5 15.214844l8.839843-1.558594c11.609376-2.046875 20.210938-11.925782 20.640626-23.703125l.257812-7.007813c.410156-11.144531-9.5625-19.828125-20.546875-17.890625zm0 0" fill="#4e5660"/><path d="m165.871094 180.195312c-3.175782 0-6.121094-2.027343-7.140625-5.210937-1.265625-3.945313.910156-8.167969 4.851562-9.433594 9.664063-3.09375 22.996094-7.042969 40.46875-10.125 17.476563-3.082031 31.351563-3.929687 41.488281-4.324219 4.113282-.164062 7.625 3.0625 7.785157 7.203126.164062 4.136718-3.0625 7.625-7.199219 7.785156-9.664062.375-22.878906 1.183594-39.472656 4.109375-16.582032 2.925781-29.28125 6.6875-38.492188 9.636719-.761718.246093-1.53125.359374-2.289062.359374zm0 0" fill="#e26e7e"/><path d="m138.558594 227.175781c-13.011719 0-25.167969-7.914062-30.183594-20.261719l-2.636719-6.5c-2.855469-7.03125-2.386719-14.878906 1.285157-21.519531 3.675781-6.644531 10.070312-11.210937 17.546874-12.527343l26.144532-4.609376c7.472656-1.316406 15.046875.785157 20.773437 5.773438 5.722657 4.984375 8.847657 12.195312 8.570313 19.78125l-.257813 7.007812c-.558593 15.210938-11.84375 28.167969-26.835937 30.8125l-8.835938 1.558594c-1.863281.324219-3.726562.484375-5.570312.484375zm16.515625-50.800781c-.582031 0-1.171875.050781-1.757813.152344l-26.140625 4.609375c-2.992187.527343-5.554687 2.359375-7.027343 5.015625-1.46875 2.660156-1.65625 5.800781-.515626 8.617187l2.640626 6.5c3.082031 7.589844 11.175781 12.070313 19.25 10.644531l8.839843-1.558593c8.070313-1.421875 14.144531-8.398438 14.445313-16.589844l.257812-7.007813c.113282-3.035156-1.140625-5.925781-3.429687-7.921874-1.84375-1.601563-4.167969-2.460938-6.5625-2.460938zm-3.058594-7.230469h.011719zm0 0" fill="#e26e7e"/><path d="m257.636719 150.519531 26.144531-4.609375c10.980469-1.9375 20.953125 6.746094 20.542969 17.890625l-.253907 7.007813c-.433593 11.78125-9.035156 21.65625-20.640624 23.703125l-8.839844 1.558593c-11.609375 2.046876-23.066406-4.292968-27.5-15.210937l-2.640625-6.496094c-4.195313-10.335937 2.203125-21.90625 13.1875-23.84375zm0 0" fill="#4e5660"/><path d="m270.320312 203.945312c-13.011718 0-25.164062-7.914062-30.179687-20.265624l-2.640625-6.5c-2.855469-7.03125-2.386719-14.875 1.289062-21.519532 3.675782-6.644531 10.070313-11.207031 17.546876-12.527344l26.140624-4.605468c7.476563-1.324219 15.046876.78125 20.773438 5.769531 5.726562 4.984375 8.847656 12.195313 8.570312 19.78125l-.257812 7.007813c-.558594 15.210937-11.84375 28.167968-26.832031 30.8125l-8.839844 1.558593c-1.859375.328125-3.722656.488281-5.570313.488281zm-11.382812-46.039062c-2.992188.527344-5.550781 2.355469-7.023438 5.015625-1.472656 2.660156-1.660156 5.800781-.515624 8.617187l2.640624 6.496094c3.082032 7.59375 11.175782 12.066406 19.25 10.648438l8.839844-1.558594c8.070313-1.425781 14.144532-8.402344 14.445313-16.589844l.257812-7.007812c.109375-3.039063-1.140625-5.925782-3.433593-7.921875-2.292969-1.996094-5.320313-2.839844-8.316407-2.3125zm0 0" fill="#e26e7e"/><path d="m224.78125 311.125c-13.652344 0-26.496094-7.363281-33.285156-19.585938-2.011719-3.621093-.707032-8.1875 2.917968-10.199218 3.621094-2.011719 8.1875-.707032 10.195313 2.914062 4.777344 8.601563 14.496094 13.226563 24.1875 11.519532 9.691406-1.707032 17.246094-9.382813 18.789063-19.09375.652343-4.09375 4.492187-6.878907 8.585937-6.230469 4.09375.652343 6.878906 4.496093 6.230469 8.585937-2.550782 16.027344-15.007813 28.691406-31 31.511719-2.214844.386719-4.429688.578125-6.621094.578125zm0 0" fill="#4e5660"/><path d="m410.316406 153.730469-29.457031-20.625-22.132813 31.605469 29.457032 20.628906c3.84375 2.691406 5.984375 7.207031 5.628906 11.886718l-.4375 5.730469c-.582031 7.679688 2.925781 15.097657 9.234375 19.515625l51.148437 35.8125c11.355469 7.953125 27.007813 5.191406 34.960938-6.164062l18.738281-26.761719c7.953125-11.355469 5.191407-27.007813-6.164062-34.957031l-51.148438-35.816406c-6.308593-4.417969-14.480469-5.179688-21.496093-2.003907l-5.234376 2.371094c-4.277343 1.933594-9.253906 1.46875-13.097656-1.222656zm0 0" fill="#e1b89a"/><path d="m357.992188 116.34375-22.835938 32.613281c-5.121094 7.316407-3.34375 17.398438 3.972656 22.519531 7.316406 5.125 17.398438 3.347657 22.519532-3.96875l22.835937-32.609374c5.121094-7.316407 3.34375-17.402344-3.972656-22.523438-7.316407-5.125-17.398438-3.34375-22.519531 3.96875zm0 0" fill="#d2996f"/><path d="m497.242188 187.5625-28.328126 40.457031c-2.164062 3.089844-6.421874 3.84375-9.511718 1.679688l-28.34375-19.847657c-3.089844-2.164062-3.839844-6.421874-1.675782-9.511718l28.324219-40.457032zm0 0" fill="#fcf2d0"/><path d="m460.648438 212.347656c-1.488282 0-2.988282-.441406-4.296876-1.355468-3.390624-2.378907-4.21875-7.054688-1.839843-10.445313l8.066406-11.523437c2.378906-3.398438 7.054687-4.21875 10.445313-1.84375 3.394531 2.375 4.21875 7.054687 1.84375 10.445312l-8.070313 11.523438c-1.457031 2.085937-3.785156 3.199218-6.148437 3.199218zm0 0" fill="#8ee2cf"/><path d="m421.050781 190.65625c-4.144531 0-7.5-3.355469-7.5-7.5v-6.835938c0-4.144531 3.355469-7.5 7.5-7.5 4.140625 0 7.5 3.355469 7.5 7.5v6.835938c0 4.140625-3.359375 7.5-7.5 7.5zm0 0" fill="#ffd15c"/></svg>