<?xml version="1.0"?>
<svg xmlns="http://www.w3.org/2000/svg" id="Layer_1" data-name="Layer 1" viewBox="0 0 512 512"><title>Online Payment 3</title><path d="M491,404.3v27.11a27.113,27.113,0,0,1-27.11,27.11H382.54a27.113,27.113,0,0,1-27.11-27.11V404.3Z" style="fill:#cc7350"/><polygon points="491 356.85 491 404.3 355.43 404.3 355.43 375.52 355.43 326.38 355.43 292 355.43 246.36 491 246.36 491 275.5 491 356.85" style="fill:#f8ec7d"/><path d="M491,241.61v4.75H355.43v-4.75a27.113,27.113,0,0,1,27.11-27.11h81.35A27.113,27.113,0,0,1,491,241.61Z" style="fill:#cc7350"/><path d="M445.48,75.69V214.5H408.64V92.96H86.89V292H355.43v34.38h-45.7a11.113,11.113,0,0,0-11.11,11.1,11.1,11.1,0,0,1-11.1,11.11H198.68a11.113,11.113,0,0,1-11.11-11.11,11.1,11.1,0,0,0-11.1-11.1H50.05V75.69A22.212,22.212,0,0,1,72.26,53.48H423.27A22.212,22.212,0,0,1,445.48,75.69Z" style="fill:#e48e66"/><path d="M408.64,92.96V214.5h-26.1a27.113,27.113,0,0,0-27.11,27.11V292H86.89V92.96Z" style="fill:#6fe3ff"/><path d="M355.43,326.38v49.14H45.57a24.57,24.57,0,0,1,0-49.14h130.9a11.1,11.1,0,0,1,11.1,11.1,11.113,11.113,0,0,0,11.11,11.11h88.84a11.1,11.1,0,0,0,11.1-11.11,11.113,11.113,0,0,1,11.11-11.1Z" style="fill:#cc7350"/><path d="M45.57,381.52H349.43v49.89a33.147,33.147,0,0,0,33.11,33.11h81.35A33.147,33.147,0,0,0,497,431.41V241.61a33.147,33.147,0,0,0-33.11-33.11H451.48V75.69a28.242,28.242,0,0,0-28.21-28.21H72.26A28.242,28.242,0,0,0,44.05,75.69V320.417A30.585,30.585,0,0,0,15,350.95,30.6,30.6,0,0,0,45.57,381.52ZM402.64,208.5h-20.1a33.147,33.147,0,0,0-33.11,33.11V286H92.89V98.96H402.64Zm-41.21,43.86H485V398.3H361.43ZM463.89,452.52H382.54a21.134,21.134,0,0,1-21.11-21.11V410.3H485v21.11A21.134,21.134,0,0,1,463.89,452.52Zm21.047-212.16H361.494A21.118,21.118,0,0,1,382.54,220.5h81.35A21.12,21.12,0,0,1,484.937,240.36ZM72.26,59.48H423.27a16.229,16.229,0,0,1,16.21,16.21V208.5H414.64V92.96a6,6,0,0,0-6-6H86.89a6,6,0,0,0-6,6V292a6,6,0,0,0,6,6H349.43v22.38h-39.7a17.112,17.112,0,0,0-17.11,17.1,5.111,5.111,0,0,1-5.1,5.11H198.68a5.113,5.113,0,0,1-5.11-5.11,17.119,17.119,0,0,0-17.1-17.1H56.05V75.69A16.229,16.229,0,0,1,72.26,59.48ZM32.448,337.818A18.406,18.406,0,0,1,45.57,332.38h130.9a5.106,5.106,0,0,1,5.1,5.1,17.114,17.114,0,0,0,17.11,17.11h88.84a17.124,17.124,0,0,0,17.1-17.11,5.113,5.113,0,0,1,5.11-5.1h39.7v37.14H45.57a18.564,18.564,0,0,1-13.122-31.7Z" style="fill:#63316d"/><path d="M435.76,425.41H410.67a6,6,0,0,0,0,12h25.09a6,6,0,0,0,0-12Z" style="fill:#63316d"/><path d="M246.053,237.448c-.018,0-.035,0-.053,0s-.035,0-.053,0a18.019,18.019,0,0,1-17.947-18,6,6,0,0,0-12,0,30.05,30.05,0,0,0,24,29.4v8.884a6,6,0,0,0,12,0v-8.884a30,30,0,0,0-6-59.4,18,18,0,1,1,18-18,6,6,0,0,0,12,0,30.05,30.05,0,0,0-24-29.4V134.27a6,6,0,1,0-12,0v7.784a30,30,0,0,0,6,59.4,18,18,0,0,1,.053,36Z" style="fill:#63316d"/><path d="M423.21,320.1a12,12,0,1,1,12-12,6,6,0,0,0,12,0,24.042,24.042,0,0,0-18-23.24v-4.65a6,6,0,0,0-12,0v4.65a24,24,0,0,0,6,47.24,12,12,0,0,1,.048,24l-.048,0-.048,0a12.012,12.012,0,0,1-11.952-12,6,6,0,0,0-12,0,24.043,24.043,0,0,0,18,23.241v5.469a6,6,0,0,0,12,0v-5.469a24,24,0,0,0-6-47.241Z" style="fill:#63316d"/></svg>
